# xmcd
#
# Track frame offsets:
#	150
#	17530
#	34947
#	54117
#	71781
#	81574
#	104937
#	121906
#	137732
#	154180
#	176895
#
# Disc length: 2743 seconds
#
# Revision: 1
# Processed by: cddbd v1.5.1PL2 Copyright (c) Steve Scherf et al.
# Submitted via: audiograbber 1.83.01
#
DISCID=9c0ab50b
DTITLE=Uffg'Blues'd - Werre se werres
DYEAR=1999
DGENRE=
TTITLE0=Party
TTITLE1=Druschel-Blues
TTITLE2=Altstadt-Boogie
TTITLE3=Summertime
TTITLE4=S'Brischdl's un s'Beischl's
TTITLE5=Ausgflippt Fraa
TTITLE6=Paschder
TTITLE7=Nervesach
TTITLE8=Die Griene
TTITLE9=De Hoiner
TTITLE10=Pälzer Lied
EXTD=
EXTT0=
EXTT1=
EXTT2=
EXTT3=
EXTT4=
EXTT5=
EXTT6=
EXTT7=
EXTT8=
EXTT9=
EXTT10=
PLAYORDER=
